<?xml version="1.0" standalone="no"?>
<!DOCTYPE svg PUBLIC "-//W3C//DTD SVG 20010904//EN"
 "http://www.w3.org/TR/2001/REC-SVG-20010904/DTD/svg10.dtd">
<svg version="1.0" xmlns="http://www.w3.org/2000/svg"
 width="1369.000000pt" height="903.000000pt" viewBox="0 0 1369.000000 903.000000"
 preserveAspectRatio="xMidYMid meet">

<g transform="translate(0.000000,903.000000) scale(0.100000,-0.100000)"
fill="#000000" stroke="none">
<path d="M7795 9024 c-641 -63 -1157 -221 -1655 -507 -321 -184 -543 -357
-837 -652 l-211 -213 -79 19 c-284 68 -649 75 -953 18 -859 -162 -1564 -770
-1834 -1585 l-26 -80 -73 -23 c-218 -69 -479 -191 -687 -322 -758 -475 -1271
-1256 -1412 -2151 -20 -125 -22 -181 -23 -453 0 -331 7 -401 61 -655 159 -744
601 -1409 1235 -1857 387 -274 832 -452 1344 -536 125 -20 166 -21 1138 -24
l1007 -4 0 671 0 670 -899 0 c-973 0 -1023 2 -1231 55 -563 144 -1014 547
-1214 1087 -66 178 -95 325 -103 529 -41 1038 730 1880 1722 1879 104 0 230
-11 312 -26 36 -7 36 -7 28 22 -63 249 -58 470 15 682 115 330 408 609 781
740 165 58 276 77 459 76 185 0 286 -18 425 -74 170 -68 333 -190 432 -322 19
-27 38 -48 42 -48 3 0 19 34 35 75 69 181 211 429 355 623 116 156 384 427
526 532 357 265 738 423 1185 491 177 26 502 36 676 20 813 -76 1496 -484
1918 -1146 72 -112 202 -377 251 -508 112 -305 185 -678 202 -1034 l6 -133 48
0 c128 0 356 -42 504 -94 453 -156 809 -516 972 -981 33 -95 79 -290 94 -405
18 -126 18 -473 1 -570 -84 -468 -317 -852 -687 -1131 -161 -121 -395 -233
-595 -284 -188 -48 -177 -48 -942 -52 l-728 -4 0 -670 0 -670 783 4 c851 4
839 3 1127 67 572 126 1125 437 1535 861 452 468 729 1028 836 1689 26 160 37
576 20 743 -44 413 -147 764 -328 1120 -286 559 -741 1019 -1300 1312 l-92 48
-17 76 c-230 1071 -882 1985 -1821 2554 -462 280 -968 455 -1546 533 -106 15
-681 28 -782 18z"/>
<path d="M5855 3770 l-1230 -1230 568 0 567 0 0 -1270 0 -1270 1330 0 1330 0
0 1270 0 1270 567 0 568 0 -1230 1230 c-676 677 -1232 1230 -1235 1230 -3 0
-559 -553 -1235 -1230z"/>
</g>
</svg>
